<?xml version="1.0" standalone="no"?>
<!DOCTYPE svg PUBLIC "-//W3C//DTD SVG 20010904//EN"
 "http://www.w3.org/TR/2001/REC-SVG-20010904/DTD/svg10.dtd">
<svg version="1.0" xmlns="http://www.w3.org/2000/svg"
 width="163.000000pt" height="163.000000pt" viewBox="0 0 163.000000 163.000000"
 preserveAspectRatio="xMidYMid meet">

<g transform="translate(0.000000,163.000000) scale(0.100000,-0.100000)"
fill="#000000" stroke="none">
<path d="M660 1615 c-330 -67 -582 -322 -646 -653 -61 -317 82 -650 358 -829
375 -245 879 -138 1125 239 245 375 138 879 -239 1125 -173 113 -400 158 -598
118z m14 -351 c3 -9 6 -139 6 -290 l0 -274 -92 -159 c-51 -88 -94 -159 -95
-157 -2 2 8 29 23 62 20 46 23 63 15 76 -12 20 -16 739 -4 751 3 4 37 7 74 7
52 0 68 -4 73 -16z m401 -79 c-14 -31 -25 -58 -23 -59 45 -19 43 -4 46 -315 2
-306 -2 -348 -40 -396 -39 -49 -90 -65 -218 -65 -101 0 -122 3 -160 23 -68 34
-69 41 -10 142 28 50 56 94 61 99 5 6 9 -12 9 -46 0 -72 19 -88 103 -88 103 0
97 -15 97 261 l0 241 77 134 c42 73 79 132 80 130 2 -2 -8 -29 -22 -61z"/>
</g>
</svg>
